<?xml version="1.0" encoding="UTF-8" standalone="no"?>
<!-- Created with Inkscape (http://www.inkscape.org/) -->

<svg
   width="80.088364mm"
   height="69.000458mm"
   viewBox="0 0 80.088364 69.000458"
   version="1.1"
   id="svg1"
   xml:space="preserve"
   xmlns="http://www.w3.org/2000/svg"
   xmlns:svg="http://www.w3.org/2000/svg"><defs
     id="defs1" /><g
     fill="currentColor" 
     id="layer1"
     transform="translate(-112.44164,-204.34779)"><path
       d="m 122.73945,272.85399 c -0.16557,-0.30937 -0.2739,-2.87107 -0.2739,-6.47725 v -5.96548 l -0.7276,-0.14155 c -3.22599,-0.62758 -4.58578,-1.28957 -6.39238,-3.11202 -0.61181,-0.61717 -1.49252,-1.89337 -1.95713,-2.836 l -0.17735,-0.35981 a 6.5397572,6.5397572 76.759536 0 1 -0.67379,-2.86364 l -0.0753,-17.81092 c -0.0581,-13.74298 0.006,-19.7788 0.22172,-20.90802 0.5948,-3.11201 2.75123,-5.82035 5.7554,-7.2284 a 9.857003,9.857003 170.35776 0 1 4.20595,-0.71457 l 29.18925,-0.0593 c 35.13966,-0.0714 33.34971,-0.14905 36.04217,1.56437 2.78117,1.76987 4.12704,4.1515 4.44884,7.87262 0.28548,3.30107 0.26693,35.628 -0.0217,37.82166 -0.39752,3.02124 -2.25202,5.77918 -4.95133,7.36342 -2.13892,1.25533 -4.51037,1.39117 -24.40548,1.39795 l -18.12396,0.006 -2.06204,1.25574 c -1.13412,0.69066 -5.59897,3.47473 -9.92188,6.18683 -4.32291,2.7121 -8.1199,5.06359 -8.43775,5.22552 -0.8421,0.42902 -1.35147,0.3624 -1.66173,-0.21734 z m 56.00391,-29.18771 c 0.13802,-0.1819 0.50162,-1.00459 0.808,-1.82821 l 0.55707,-1.49748 -1.56983,-0.1822 c -0.8634,-0.10021 -1.62447,-0.27061 -1.69125,-0.37867 -0.0668,-0.10806 0.22211,-0.45046 0.64199,-0.7609 0.41989,-0.31043 1.13591,-1.32105 1.59117,-2.24581 0.68036,-1.382 0.83088,-2.01368 0.84531,-3.54752 0.0335,-3.55734 -1.51924,-6.21102 -4.48686,-7.66831 -1.33456,-0.65535 -1.81556,-0.54589 -4.02549,-0.74246 -1.31025,-0.11654 -2.75879,0.1134 -3.73655,0.5655 -1.68286,0.77813 -3.31445,2.31898 -4.14622,3.91563 -0.60305,1.1576 -0.69799,1.66338 -0.69845,3.72095 -4.4e-4,1.962 0.10479,2.58134 0.59764,3.51766 1.47492,2.80206 4.01851,4.4327 7.37453,4.72765 1.26233,0.11094 2.03668,0.33365 2.59343,0.74586 1.52125,1.12634 2.59176,1.55207 4.92854,1.96005 0.0913,0.016 0.27896,-0.11984 0.41697,-0.30174 z m -8.41136,-6.55391 c -2.61095,-0.44514 -4.11485,-3.36707 -3.04764,-5.92127 1.22299,-2.92704 5.91443,-3.37382 7.70819,-0.73408 0.52501,0.77263 0.65426,1.29245 0.65426,2.63145 0,1.56509 -0.0616,1.73378 -0.99219,2.71882 -1.09086,1.15465 -2.57561,1.60292 -4.32262,1.30508 z m 16.15599,3.71637 c 1.75891,-1.7589 -0.0225,-4.38239 -2.49694,-3.67725 -1.04933,0.29903 -1.46508,0.89904 -1.46508,2.11439 0,0.75282 0.16625,1.11933 0.69714,1.53693 0.91627,0.72074 2.55704,0.73377 3.26488,0.0259 z m -59.85643,-0.41369 c 1.25685,-0.52515 1.85789,-1.08196 2.47673,-2.29448 0.59047,-1.15692 0.64213,-2.53407 0.14012,-3.73556 -0.38976,-0.93281 -1.83148,-2.29425 -2.42956,-2.29425 -0.26289,0 -0.1812,-0.27615 0.28489,-0.96296 1.17209,-1.72718 0.66781,-3.78284 -1.28309,-5.23042 -0.65686,-0.4874 -1.18606,-0.56378 -4.43177,-0.63964 l -3.68583,-0.0861 v 7.82521 7.8252 h 3.97725 c 2.98062,0 4.22132,-0.10198 4.95126,-0.40696 z m -4.95976,-4.75241 v -1.45521 h 1.56861 c 1.73592,0 2.40014,0.4038 2.40014,1.4591 0,0.91695 -0.94714,1.45132 -2.57241,1.45132 h -1.39634 z m 0,-5.66914 c 0,-0.77659 0.11692,-1.06312 0.46303,-1.1347 1.33736,-0.2766 2.15632,0.47748 1.78593,1.64446 -0.13044,0.41099 -0.40032,0.52917 -1.20845,0.52917 -1.0343,0 -1.04051,-0.006 -1.04051,-1.03893 z m 13.34862,10.0596 c 0.3548,-0.68611 0.55497,-0.77871 1.85888,-0.8599 0.80369,-0.05 2.12837,-0.0495 2.94373,0.001 1.31385,0.0817 1.53204,0.17935 1.91823,0.85823 0.42528,0.74759 0.48824,0.76605 2.61857,0.76768 1.20054,9.2e-4 2.18281,-0.0923 2.18281,-0.20726 0,-0.11491 -1.58731,-3.65702 -3.52735,-7.87136 l -3.52735,-7.66242 -1.05932,-0.0792 -1.05932,-0.0792 -3.54927,7.72561 c -1.9521,4.24908 -3.58895,7.82684 -3.63746,7.95058 -0.0485,0.12374 0.9307,0.22498 2.17602,0.22498 2.23193,0 2.26988,-0.011 2.66183,-0.76891 z m 2.72482,-4.2096 c -0.40018,-0.0461 -0.7276,-0.18006 -0.7276,-0.29781 0,-0.11774 0.31268,-0.91351 0.69484,-1.76836 l 0.69484,-1.55428 0.52036,1.19063 c 1.04573,2.39267 1.03771,2.31678 0.25575,2.41986 -0.39082,0.0515 -1.03801,0.056 -1.43819,0.01 z m 14.94106,1.67061 0.074,-3.3079 1.95474,3.19793 c 1.07511,1.75886 2.09709,3.25255 2.27108,3.31931 0.17398,0.0668 1.28962,0.0865 2.4792,0.0438 l 2.16287,-0.0776 -2.01489,-3.01382 -2.01489,-3.01381 0.82733,-0.64749 c 2.816,-2.20385 2.17718,-6.79136 -1.15658,-8.30568 -0.8803,-0.39986 -1.75902,-0.48673 -4.97189,-0.49151 l -3.9026,-0.006 v 7.8052 7.80521 h 2.10876 2.10876 z m 0.53707,-5.63663 c -0.53426,-0.0791 -0.59531,-0.23687 -0.59531,-1.53874 v -1.45063 l 1.38263,0.08 c 1.14333,0.0661 1.43589,0.18727 1.69032,0.69992 0.17472,0.35201 0.22661,0.92311 0.12008,1.32145 -0.14538,0.54359 -0.3919,0.73243 -1.09501,0.83883 -0.49907,0.0755 -1.17529,0.0977 -1.50271,0.0492 z m 33.35787,2.3961 c 0.0848,-0.54571 0.23672,-2.8079 0.33764,-5.02709 l 0.18349,-4.03489 h -2.32551 -2.3255 l 0.17732,3.50572 c 0.0975,1.92816 0.24876,4.19034 0.33607,5.02709 l 0.15874,1.52135 h 1.6518 1.6518 z"
       id="path2" /></g></svg>
