<?xml version="1.0" encoding="UTF-8" standalone="no"?>

<svg
   width="491.38431mm"
   height="517.4953mm"
   viewBox="0 0 491.38431 517.4953"
   version="1.1"
   id="svg1"
   xml:space="preserve"
   xmlns="http://www.w3.org/2000/svg"
   xmlns:svg="http://www.w3.org/2000/svg">
   
   <defs id="defs1" />
    <g
      id="layer1"
      transform="translate(107.08136,153.49533)">
      <path
      fill="currentColor" 
        d="m 97.054868,362.83865 c -2.61484,-3.19107 -4.56166,-7.52745 -5.1962,-11.57415 -0.328,-2.0917 -0.1691,-7.78241 0.26867,-9.62223 0.45169,-1.89833 1.5718,-9.58694 2.92947,-20.10834 2.08009,-16.11988 3.48404,-24.05009 5.577982,-31.50727 1.66385,-5.92549 2.0574,-9.16581 1.58803,-13.07502 -0.42814,-3.56575 -1.16551,-6.04605 -2.802472,-9.42671 -3.19942,-6.60744 -8.98963,-12.26912 -15.76651,-15.41649 -2.66158,-1.23612 -3.71292,-1.49036 -4.47542,-1.08228 -1.1488,0.61481 -1.31603,1.66882 -1.31603,8.29416 0,6.79495 -0.27607,10.36006 -1.09896,14.19174 -1.57645,7.34055 -4.16517,10.30999 -8.99349,10.31616 -3.96041,0.005 -6.92063,-1.5164 -8.31884,-4.27563 -1.51005,-2.97994 -1.46418,-8.2312 0.15445,-17.6822 2.03071,-11.85708 2.09923,-16.89224 0.28308,-20.80244 -2.04888,-4.41125 -6.22087,-6.33997 -9.91872,-4.58543 -0.71602,0.33973 -2.56149,1.60817 -4.10104,2.81875 -1.53956,1.21058 -3.67974,2.64336 -4.75597,3.18396 -1.73769,0.87286 -2.18204,0.98367 -3.96875,0.98976 -1.7432,0.006 -2.20138,-0.0981 -3.42982,-0.77846 -1.77423,-0.98272 -2.94605,-2.33574 -4.34181,-5.01319 -1.24945,-2.39679 -2.64869,-3.99904 -3.7292,-4.27023 -1.65356,-0.41502 -2.56027,0.19826 -7.36591,4.98216 -10.6982302,10.64986 -20.8271502,18.02996 -36.59106,26.66089 -2.47386,1.35447 -5.15276,2.87826 -5.95313,3.3862 -8.95144,5.68097 -16.02507,13.58912 -20.86444,23.32595 -1.81756,3.65694 -2.51746,5.42232 -5.34966,13.49375 -6.07929,17.32521 -13.47609,24.50414 -23.94877,23.24335 -5.29862,-0.6379 -9.69776,-3.31567 -11.59371,-7.05713 -1.88837,-3.72654 -2.14353,-10.01834 -0.65642,-16.18622 0.95196,-3.94834 2.42135,-6.55634 5.81374,-10.31875 4.34137,-4.8149 9.10948,-10.2981 15.99041,-18.38854 15.5501,-18.28347 24.04703,-26.91093 34.12656,-34.65083 5.00549,-3.84363 8.88013,-6.35809 15.15889,-9.83742 5.9964498,-3.32288 8.4802398,-5.14595 14.4732698,-10.62316 6.31876,-5.7749 7.27721,-6.93235 7.27721,-8.78807 0,-1.82432 -1.82487,-3.73394 -5.29200002,-5.53774 -1.15426,-0.6005 -2.28121998,-1.35249 -2.50435998,-1.67107 -0.68451,-0.97727 -0.48669,-2.79146 0.65260998,-5.9853 0.58209,-1.63176 1.05834,-3.0516 1.05834,-3.1552 0,-0.1036 -0.53671,-0.14568 -1.19267998,-0.0935 -1.56543,0.1245 -4.46129,-0.39098 -5.6594,-1.0074 -1.23215,-0.63395 -2.27639,-1.74539 -2.78594,-2.96522 -0.4920198,-1.17786 -0.9401898,-4.87372 -0.9431498,-7.77765 -10e-4,-1.17382 -0.13188,-2.83591 -0.29042,-3.69353 -1.13856,-6.159 -6.4435,-8.59806 -16.41749,-7.54829 -4.42385,0.46562 -7.54947,1.97272 -13.87772,6.69154 -10.1311,7.55451 -14.10338,9.36943 -21.14258,9.66 -3.74088,0.15441 -6.21602,-0.17869 -9.5227,-1.28153 -4.91382,-1.63887 -8.70272,-4.69268 -10.59995,-8.54345 -0.93727,-1.90235 -1.03733,-2.31323 -1.13095,-4.64414 -0.12399,-3.08713 0.30448,-5.01445 1.82275,-8.19889 3.11203,-6.52721 9.06831,-11.79193 15.86533,-14.02327 3.39841,-1.11565 10.31592,-1.97037 25.83158,-3.19174 8.29236,-0.65277 14.95222,-3.03219 18.54617,-6.62613 2.56427,-2.56427 3.67259,-6.02925 2.84667,-8.89965 -0.35936,-1.24892 -0.72833,-1.81822 -1.94292,-2.99779 -2.04783,-1.98881 -3.8167,-2.8563 -10.25922,-5.03136 -19.55501,-6.60195 -37.82266,-7.98148 -56.98905,-4.30367 -2.28066,0.43763 -4.52833,0.69117 -6.21771,0.70136 -2.3676,0.0143 -2.82062,-0.0637 -4.30795,-0.74177 -1.941378,-0.88502 -4.129958,-3.07423 -5.074878,-5.07632 -1.26823,-2.68713 -1.12165,-5.9251 0.4095,-9.04633 1.69318,-3.45152 4.636648,-5.76925 8.148848,-6.41654 2.04278,-0.37647 3.61581,-0.13473 7.01699,1.07839 6.10385,2.1771 12.34157,3.0774 19.60437,2.82955 6.58618,-0.22477 8.5171,-0.51544 26.45833,-3.98302 3.41974,-0.66094 8.00123,-1.457067 10.18108,-1.769166 7.46584,-1.068916 11.48342,-2.495679 14.31517,-5.083739 2.87375,-2.626442 4.00448,-6.620363 3.207,-11.327611 -0.53703,-3.169892 -1.50538,-6.271072 -2.96891,-9.508061 -1.87008,-4.136181 -1.85449,-4.345963 0.55367,-7.449925 1.90225,-2.451874 3.65764,-6.022742 4.23382,-8.612549 0.34021,-1.52919 0.41094,-2.730133 0.29889,-5.075063 -0.23832,-4.987511 -1.13456,-7.6159 -6.40114,-18.772596 -3.73,-7.901589 -5.3724,-13.90722 -4.69306,-17.160701 0.85112,-4.076246 4.00497,-5.729263 13.0234798,-6.8259681 1.96453,-0.238899 5.11969,-0.771642 7.01146,-1.183873 1.89177,-0.412232 4.21349,-0.830281 5.15937,-0.928998 6.56352,-0.685004 8.7621602,-2.97848 9.1816302,-9.577659 0.38707,-6.089357 -1.31037,-9.4271049 -8.1923302,-16.1089909 -14.4122398,-13.99324 -27.5956398,-24.177544 -39.8830498,-30.810044 -12.73029,-6.87155 -20.16143,-11.85703 -23.19318,-15.56008 -4.11643,-5.02789 -4.04004,-10.75972 0.22844,-17.14164 3.52035,-5.26336 8.98078,-7.81185 16.74704,-7.81619 6.19642,-0.004 8.80121,0.90325 17.42047,6.064 21.2610098,12.72993 32.9387398,22.63372 42.17288,35.76646 2.12817,3.02667 4.61557,5.71114 5.90106,6.36858 0.51484,0.26331 1.96583,0.72331 3.22441,1.02222 8.03594,1.90853 12.59478,6.248419 15.73695,14.981142 2.26735,6.301402 6.92457,9.554856 12.30179,8.593817 2.22804,-0.398204 3.76814,-1.326042 4.51198,-2.718253 0.54204,-1.01451 0.58448,-1.382475 0.47929,-4.155773 -0.0635,-1.673489 -0.11813,-4.530989 -0.12146,-6.35 -0.005,-3.000716 0.0568,-3.442184 0.67157,-4.762503 1.27967,-2.74814 2.9579,-3.76822 7.18791,-4.36902 3.27785,-0.46556 4.1282,-0.70354 5.60378,-1.56829 2.06737,-1.21156 2.67971,-3.4191 1.8421,-6.64095 -0.89443,-3.4404 -5.63133,-13.30285 -12.95694,-26.97694 -10.57818,-19.7454 -12.29138,-23.82148 -12.29582,-29.254586 -0.003,-3.57858 1.00421,-6.29279 3.40581,-9.1786 1.66909,-2.00562 2.75338,-2.53546 4.90791,-2.39827 5.10115,0.32481 11.81525,6.84637 16.15946,15.696036 1.63388,3.3284 2.6417,6.17751 5.98983,16.93333 3.06828,9.85683 5.52907,16.55998 6.70739,18.27084 1.54319,2.24065 3.77386,3.02556 6.24608,2.19783 3.16573,-1.05992 4.43923,-4.31973 3.42815,-8.77511 -0.87634,-3.86159 -18.25813,-48.293526 -23.56772,-60.244596 -3.81646,-8.59027 -4.06254,-9.31623 -4.08064,-12.03854 -0.0222,-3.33885 0.83301,-4.85979 3.47936,-6.18785 2.5295,-1.26942 5.18001,-0.47719 6.91634,2.06728 1.82556,2.67522 5.53266,13.08702 7.03096,19.74721 4.55575,20.25111 13.46548,35.946176 35.908222,63.254646 5.55459,6.75887 7.80121,7.01548 12.27965,1.4026 l 1.3981,-1.75227 2.53605,-0.16659 c 7.141,-0.46907 10.80324,-2.96231 12.19394,-8.30159 0.45644,-1.75238 0.5204,-6.88412 0.13127,-10.53219 -0.1397,-1.30969 -0.37603,-5.06016 -0.52519,-8.33437 -0.35303,-7.74947 -0.67752,-13.164646 -1.46655,-24.473956 -1.3199,-18.91852 -1.45561,-21.25476 -1.46279,-25.18097 -0.009,-4.80537 0.41381,-7.00411 1.72782,-8.98957 1.28206,-1.9372 3.11576,-2.80572 6.23899,-2.95504 4.04215,-0.19326 6.52535,1.14373 7.68811,4.13937 0.86621,2.23165 0.91832,6.58212 0.22874,19.09558 -0.82865,15.03697 -0.57117,22.24709 1.05827,29.63474 2.75275,12.480506 7.34966,17.797626 14.41157,16.669486 3.51395,-0.56136 6.38402,-1.8385 11.91965,-5.30407 9.20129,-5.76046 17.65224,-9.35113 26.06145,-11.073076 9.04725,-1.8526 13.97957,-0.15409 15.09738,5.198996 0.38822,1.85912 0.17673,6.16159 -0.4128,8.39788 -0.62781,2.38152 -2.95763,8.47503 -3.66954,9.59749 -0.3439,0.54222 -1.72368,2.29553 -3.06619,3.89626 -4.9904,5.95026 -5.17408,7.31365 -1.65027,12.24925 4.39505,6.15588 10.09945,12.48055 15.66184,17.36481 5.70817,5.01226 8.93338,7.2718 10.40488,7.2895 0.26565,0.003 1.27768,-0.45404 2.24896,-1.01609 4.42008,-2.55777 8.16905,-3.30015 10.84728,-2.148 2.63476,1.13344 4.75101,4.30083 6.27222,9.387612 0.39166,1.309687 1.01233,2.780836 1.37926,3.269219 0.85899,1.1433 2.23789,1.727039 3.57466,1.513282 2.60253,-0.416162 2.99853,-0.756444 15.1467,-13.015673 l 11.64167,-11.74809 1.1365,0.003 c 0.85165,0.002 1.29928,0.16539 1.78594,0.65204 0.86371,0.86371 0.82437,1.75998 -0.1689,3.84849 -0.44985,0.94588 -1.28045,2.87614 -1.84577,4.28946 -3.42599,8.565134 -7.42698,16.481934 -12.08683,23.916345 -2.04338,3.260036 -3.44068,6.205652 -4.20081,8.8555729 -0.58268,2.031351 -0.67161,2.787691 -0.58304,4.958922 0.0899,2.204528 0.22304,2.81470304 0.95405,4.37324304 2.04291,4.35557196 7.68723,8.10215396 15.20781,10.09463406 1.34579,0.356548 4.88766,1.070717 7.87084,1.587043 2.98317,0.516327 6.31692,1.17791 7.40833,1.470186 6.6439,1.77922 9.83368,4.319282 9.83368,7.830686 0,2.535668 -1.22498,4.642121 -5.02812,8.646281 -5.52695,5.819072 -6.93387,9.303639 -5.1786,12.826002 1.08291,2.173128 2.87065,3.536951 7.78137,5.93624 5.00582,2.445744 5.85592,3.022254 6.77889,4.597175 0.83895,1.431565 0.88099,3.295825 0.13147,5.830389 -0.93863,3.17404 -1.13406,4.395363 -1.13665,7.103443 -0.006,6.739184 2.67218,12.216344 10.35161,21.166666 5.94163,6.924921 7.27562,10.348441 5.52355,14.175476 -0.9841,2.14954 -2.99323,4.13733 -9.94343,9.83776 -7.05683,5.7879 -9.78949,8.41913 -11.24691,10.82944 -1.24093,2.05228 -1.55971,3.21084 -1.54286,5.60742 0.022,3.13627 0.95993,6.05214 4.09496,12.73116 1.84277,3.9259 1.86299,3.99303 1.87352,6.21771 0.0139,2.93694 -0.39308,3.72216 -4.08756,7.8864 -3.65716,4.12217 -5.33571,6.3935 -6.39018,8.64686 -1.50622,3.21872 -1.08501,5.60859 1.40457,7.96937 1.68725,1.59995 3.18857,2.53771 8.37884,5.23359 2.57055,1.33518 5.3881,2.95025 6.26123,3.58905 3.01884,2.20867 6.66609,6.42528 7.70183,8.90416 1.64959,3.94803 0.25592,8.40205 -3.20392,10.23939 -2.77679,1.4746 -8.9589,0.20379 -20.62666,-4.24009 -5.36724,-2.04422 -6.94765,-2.29925 -8.34521,-1.34671 -1.31881,0.89886 -2.19226,2.60711 -2.19226,4.28748 0,2.6417 1.17984,4.13303 6.92006,8.74694 5.35499,4.30428 5.80931,4.71258 6.98177,6.27467 1.20711,1.60826 1.66707,3.45153 1.24884,5.00471 -0.74227,2.75658 -3.13156,4.71784 -5.32098,4.36773 -2.71656,-0.43439 -8.02824,-3.54531 -13.3083,-7.79433 -4.13368,-3.3265 -6.25535,-4.68429 -6.92068,-4.42898 -0.61076,0.23437 -1.41912,2.27568 -1.42535,3.59934 -0.007,1.54718 1.04248,3.76192 3.35573,7.07981 1.53952,2.20813 3.49849,5.83688 8.33588,15.44121 0.55841,1.1087 1.50396,3.43042 2.10121,5.15938 1.21891,3.52859 1.5999,6.67152 1.02126,8.42482 -0.77813,2.35776 -3.32258,3.94663 -6.35343,3.96738 -2.41871,0.0166 -4.16947,-0.88994 -6.54142,-3.38699 -1.91919,-2.02041 -3.30487,-4.1864 -8.12336,-12.69786 -3.68306,-6.5058 -9.52417,-15.33605 -11.11171,-16.79803 -1.51672,-1.39675 -2.71709,-1.92567 -4.39985,-1.93871 -1.82858,-0.0142 -2.99213,0.45089 -4.0456,1.61695 -1.27582,1.41217 -1.59028,3.10825 -1.36706,7.37326 0.24711,4.7215 -0.5053,9.53817 -1.78706,11.44018 -1.03839,1.54087 -2.07554,1.94403 -5.40824,2.10231 -3.27114,0.15536 -3.9825,0.4557 -4.93604,2.08401 -1.04564,1.78557 -1.24942,16.49875 -0.31007,22.38749 1.10348,6.91767 3.20345,13.4157 6.49842,20.10833 2.1078,4.28131 3.28056,6.2156 11.14897,18.38854 8.18232,12.65858 10.48087,16.72713 11.95826,21.16667 1.235,3.71115 1.6129,6.18222 1.6185,10.58333 0.004,3.51931 -0.0784,4.36376 -0.58414,5.95313 -1.01383,3.186 -3.21745,5.441 -6.62339,6.77783 -1.20016,0.47106 -2.07417,0.59963 -4.16897,0.61326 -2.47485,0.0161 -2.76668,-0.0399 -4.40429,-0.8457 -3.01776,-1.48486 -5.6117,-4.6664 -8.43681,-10.348 -1.98582,-3.99369 -3.40011,-8.14627 -4.61215,-13.54193 -3.55812,-15.83981 -8.49738,-28.90638 -18.19046,-48.12188 -5.52285,-10.94849 -5.87629,-11.51285 -9.46211,-15.1089 -7.34833,-7.36931 -12.65277,-10.49912 -18.25726,-10.77245 -2.97329,-0.14501 -4.9635,0.28958 -7.74823,1.69195 -4.47752,2.25484 -6.53265,6.07304 -6.53051,12.1329 0.002,4.47829 1.4639,13.25482 3.98959,23.94479 2.81219,11.90259 3.62711,19.2958 2.52265,22.88646 -0.64302,2.09052 -2.54776,4.04478 -4.72835,4.8513 -3.24733,1.20107 -7.97344,1.27966 -10.6137,0.17649 -2.12253,-0.88685 -3.66572,-2.92814 -4.40101,-5.82154 -0.49188,-1.93556 -0.74593,-8.49698 -0.56345,-14.55208 0.0877,-2.91042 0.15727,-8.03011 0.15459,-11.37708 l -0.005,-6.08542 -0.99851,-2.8997 c -3.59977,-10.45381 -12.17435,-19.16602 -21.87819,-22.22935 -7.68593,-2.4263 -17.13191,0.23781 -25.17452,7.10014 -4.36758,3.72663 -7.1663,8.27732 -9.7048,15.77995 -3.31392,9.79439 -4.77662,17.68768 -7.06419,38.12124 -2.26384,20.22161 -4.08915,31.58391 -5.95512,37.06988 -1.05359,3.09755 -3.3092,7.4886 -5.01988,9.77233 -1.5406,2.05667 -1.62193,2.08447 -6.09893,2.08447 H 98.006048 Z M 183.9603,239.7879 c 6.9421,-1.05928 10.74057,-3.56784 16.04082,-10.59355 8.13707,-10.78606 12.69747,-19.79515 14.69886,-29.0377 0.79164,-3.65585 0.86573,-11.82368 0.13861,-15.28001 -1.29387,-6.15033 -4.1661,-12.78696 -8.07276,-18.65312 -1.16294,-1.74626 -3.93448,-5.4372 -6.15896,-8.2021 -8.9871,-11.17038 -12.84305,-18.7962 -16.10283,-31.84613 -3.05806,-12.24239 -7.32872,-20.32764 -14.55888,-27.562965 -4.88789,-4.891378 -9.75148,-7.955009 -15.73226,-9.90993 -4.7922,-1.566411 -10.94756,-2.181906 -16.02551,-1.602442 -7.07601,0.807469 -15.65404,3.416846 -22.15848,6.740457 -6.78245,3.465664 -11.23353,7.05489 -17.298882,13.94933 -5.97295,6.78941 -11.59992,9.99424 -21.35403,12.16213 -14.2389,3.16465 -25.83327,10.90348 -32.97495,22.00962 -1.65995,2.58141 -4.12792,7.76952 -5.25987,11.05715 -3.66403,10.64186 -3.98648,24.68458 -0.80001,34.84076 3.97425,12.66707 13.89639,19.62661 29.66094,20.80463 5.18701,0.38761 19.44047,0.51013 34.863402,0.2997 5.7075,-0.0779 7.6757,-0.0107 9.78958,0.3342 8.05613,1.31436 14.69362,4.04873 20.58203,8.47893 1.38348,1.04087 4.10505,3.39919 6.04795,5.24072 5.79813,5.49564 9.56992,8.23332 15.17419,11.0139 9.37289,4.65039 21.38664,6.99459 29.50104,5.75642 z m 66.14584,-68.38504 c 10.69649,-3.72363 18.43671,-12.2941 21.28481,-23.56789 1.03942,-4.11437 1.30287,-6.48347 1.29461,-11.64166 -0.0177,-11.06956 -2.63896,-20.98246 -8.63439,-32.65341 -2.81822,-5.48604 -3.82128,-6.995493 -6.25796,-9.417271 -2.17496,-2.161653 -4.41909,-3.460917 -6.89492,-3.991885 -2.02502,-0.43429 -6.09018,-0.159629 -8.20049,0.554063 -6.14285,2.077472 -13.93076,7.139436 -19.94428,12.963333 -3.97011,3.84493 -6.72586,7.13485 -9.67385,11.54905 -5.89878,8.8326 -8.18972,15.76937 -7.88132,23.86405 0.21711,5.69844 1.7013,10.31061 4.83209,15.01591 5.49278,8.25512 17.79118,15.71734 29.20694,17.72168 3.14624,0.55241 8.72868,0.34903 10.86876,-0.39597 z M 59.738428,114.3888 c 5.36495,-0.9774 10.42052,-2.92322 14.18964,-5.4614 2.16243,-1.45621 5.63992,-4.93402 7.09685,-7.09749 2.42677,-3.603646 4.2208,-8.2779 5.21835,-13.596101 0.66164,-3.52739 0.66221,-13.451865 0.001,-17.657173 -1.59552,-10.147705 -6.01612,-21.458253 -10.90968,-27.913542 -4.56571,-6.022815 -10.54441,-7.62339 -18.51557,-4.956858 -13.84109,4.630158 -25.50331,13.740164 -32.96451,25.750401 -2.49737,4.020003 -4.17936,8.160209 -5.15417,12.686963 -0.66963,3.109604 -0.67069,9.820679 -0.002,12.953869 1.45979,6.840381 4.82237,14.101081 8.28881,17.897741 3.98813,4.36804 9.80467,6.82928 18.59611,7.86884 2.23884,0.26474 11.86794,-0.0586 14.15521,-0.47525 z M 210.70541,89.241269 c 7.6894,-1.159135 14.96418,-5.056738 21.64472,-11.59657 10.02013,-9.809092 14.39766,-22.642531 14.41424,-42.257646 0.006,-6.864926 -0.24881,-10.189385 -1.31082,-17.115516 -2.33237,-15.2111631 -8.30301,-29.255603 -15.7116,-36.957633 -2.70386,-2.810957 -4.75996,-4.326881 -7.72305,-5.694065 -3.79373,-1.750447 -7.26703,-2.239325 -10.9478,-1.540936 -7.46804,1.416987 -13.89093,6.35086 -21.42225,16.4559469 -3.62514,4.863991 -5.66048,8.169422 -8.4842,13.778474 -3.64933,7.2490621 -5.95522,13.9424221 -7.53113,21.8607771 -1.31437,6.604205 -1.65128,10.978416 -1.49419,19.39941 0.14056,7.534478 0.45901,10.926351 1.52607,16.254693 2.24273,11.198957 8.00945,19.490398 16.6449,23.93219 6.35367,3.268116 13.60106,4.505042 20.39511,3.480875 z m 56.22504,-9.800739 c 1.46019,-0.855728 2.35432,-2.674904 2.77478,-5.64546 0.49879,-3.523949 -0.006,-6.062419 -1.4002,-7.038831 -1.30146,-0.911576 -4.18432,-0.233951 -5.82743,1.369751 -1.38253,1.349377 -1.92149,2.907434 -1.90026,5.493354 0.021,2.556724 0.64408,4.592291 1.7417,5.689906 1.05991,1.059913 2.93569,1.113313 4.61141,0.13128 z M 131.93853,64.90263 c 7.72788,-1.960337 14.85686,-7.453905 21.31987,-16.429021 7.69159,-10.681233 13.4882,-23.157406 16.54691,-35.614306 2.06879,-8.4253171 2.9263,-15.9308371 2.68601,-23.50975 -0.4335,-13.672933 -3.0432,-21.739163 -9.07649,-28.054137 -4.80553,-5.02989 -10.43523,-7.41782 -16.62368,-7.0512 -6.06658,0.35941 -11.13178,2.56511 -18.21377,7.93144 -9.82237,7.442822 -18.82446,16.537921 -25.01608,25.27454 -5.566402,7.8544139 -9.905122,16.4207169 -12.821702,25.314981 -2.07576,6.330143 -2.55846,8.943014 -2.55846,13.848869 0,12.826367 6.89338,25.568651 17.818082,32.936375 3.87243,2.611606 9.84038,5.033217 14.06421,5.706831 1.01864,0.162452 2.14974,0.346379 2.51354,0.408725 1.69244,0.29004 6.87482,-0.132534 9.36156,-0.763347 z M 64.236338,21.790053 c 2.41701,-1.145998 4.05637,-3.470312 4.99297,-7.079106 0.56459,-2.175433 -0.0519,-4.284435 -1.61424,-5.5225331 -1.54317,-1.222879 -5.39522,-0.183501 -7.53286,2.0325501 -1.48526,1.539744 -2.14326,3.263134 -2.25642,5.909839 -0.0843,1.971946 -0.0208,2.379316 0.51535,3.307291 1.14225,1.976875 3.45741,2.507815 5.8952,1.351959 z M 219.67427,-33.666755 c 2.19281,-1.118689 3.37412,-4.023799 3.05353,-7.509319 -0.36426,-3.96034 -1.46472,-6.06186 -3.70793,-7.08093 -1.51192,-0.68685 -2.01245,-0.6163 -3.27107,0.46103 -2.02146,1.7303 -2.28745,2.55769 -2.28745,7.11532 0,4.44258 0.26753,5.63742 1.52532,6.812372 0.65261,0.609627 1.01379,0.728251 2.21736,0.728251 0.91341,0 1.81432,-0.192099 2.47024,-0.526724 z m -55.99408,-16.340459 c 4.66785,-2.4505 7.69315,-7.66957 6.40339,-11.04677 -0.75375,-1.97366 -2.00803,-2.4238 -4.40111,-1.57947 -3.89291,1.3735 -6.30149,4.56693 -6.75058,8.95031 -0.31661,3.09032 0.37192,4.66812 2.03712,4.66812 0.45166,0 1.67169,-0.44649 2.71118,-0.99219 z M 309.24051,319.85258 c -3.49857,-1.66366 -6.12358,-4.715 -7.80328,-9.07063 -0.8852,-2.29539 -4.23526,-15.17201 -4.23526,-16.27905 0,-1.00303 0.71914,-2.1522 1.65813,-2.64965 1.21657,-0.64451 4.34474,-0.55977 6.5525,0.17751 5.9597,1.99024 12.59577,8.98428 14.18456,14.94972 1.23539,4.63857 -1.33362,11.00809 -5.23783,12.98651 -1.70018,0.86154 -3.13383,0.8295 -5.11882,-0.11441 z m -165.234,-14.58368 c -3.22221,-0.92898 -3.91102,-2.86604 -2.50989,-7.05821 1.66324,-4.97642 4.5484,-7.81056 8.00199,-7.86048 2.46847,-0.0357 3.16704,1.43351 2.71383,5.70751 -0.4143,3.90707 -1.1373,5.80349 -2.8228,7.40421 -1.34638,1.27865 -4.05824,2.18894 -5.38313,1.80697 z m -245.73639,-37.96599 c -0.62195,-0.35559 -2.0804,-1.51502 -3.241,-2.5765 l -2.1102,-1.92998 -1.4e-4,-2.38724 -1.4e-4,-2.38724 1.12448,-0.30762 c 0.61846,-0.16919 2.01744,-0.56119 3.10885,-0.87113 4.029778,-1.14436 6.955588,0.11534 8.537588,3.67586 0.38387,0.86396 0.48755,1.56083 0.40403,2.71553 -0.13726,1.89765 -0.67558,2.69667 -2.60148,3.86132 -1.81937,1.10024 -3.540348,1.16846 -5.221988,0.207 z m 64.932448,-43.96421 c -1.77601,-0.54562 -3.64464,-2.43605 -4.13336,-4.1816 -0.99026,-3.53687 0.22213,-7.47984 3.2034,-10.41815 1.58954,-1.56664 3.18986,-2.58858 7.65779,-4.89019 2.10553,-1.08464 4.24276,-2.22476 4.74939,-2.53361 2.80062,-1.70728 5.84628,0.60252 5.49015,4.16369 -0.15292,1.52914 -1.27832,4.35927 -2.69406,6.77496 -1.53526,2.61963 -5.93678,6.9666 -9.46489,9.34757 -1.55509,1.04947 -2.98384,1.95858 -3.175,2.02025 -0.19116,0.0617 -0.9262,-0.0657 -1.63342,-0.28292 z m 388.570022,-2.60393 c -4.78414,-1.07238 -7.53199,-4.4301 -7.58422,-9.2675 -0.0285,-2.63805 0.45264,-3.56461 2.33908,-4.50467 3.83838,-1.91274 11.07926,0.58803 12.98581,4.48489 2.8032,5.72954 -1.35506,10.71862 -7.74067,9.28728 z m 4.58528,-144.271155 c -0.10942,-0.10914 -3.49278,-0.198437 -7.51857,-0.198437 -7.31371,0 -7.32058,-5.35e-4 -8.51025,-0.661459 -0.90124,-0.500689 -1.36747,-1.010603 -1.91822,-2.097964 -0.95597,-1.88735 -0.95008,-3.011938 0.0208,-3.982862 1.03301,-1.033015 2.10878,-1.279877 7.54005,-1.730244 5.58624,-0.463219 5.0432,-0.351868 10.36462,-2.125286 6.36588,-2.1215 16.28846,-4.084278 20.65562,-4.085876 4.64978,-0.0017 7.30165,2.094754 7.31099,5.779768 0.005,1.841317 -0.29229,2.628336 -1.49335,3.957766 -1.95303,2.161771 -5.73454,3.084654 -19.07798,4.656017 -6.2912,0.740869 -7.06912,0.792413 -7.37376,0.488577 z M -66.021742,28.476694 c -3.24541,-0.539935 -5.85386,-2.581611 -6.91221,-5.410306 -1.44777,-3.869519 -1.45174,-11.05912 -0.008,-13.8897431 2.81728,-5.522339 12.38742,-3.500619 16.47907,3.4812531 0.91194,1.556105 1.70513,3.838891 2.18283,6.282117 1.16246,5.945538 -0.3802,8.509846 -5.68923,9.457009 -2.24791,0.40104 -3.98379,0.423889 -6.0528,0.07967 z M 343.53479,8.7560929 c -1.12275,-0.573016 -1.86928,-2.135774 -1.8766,-3.928416 -0.0105,-2.567806 1.33878,-4.00501696 4.0197,-4.28171196 1.78134,-0.183851 3.17613,0.368713 3.92216,1.55381196 1.07786,1.71221 0.0844,5.281167 -1.77098,6.361837 -1.23032,0.716624 -3.20219,0.851844 -4.29428,0.294479 z M 323.6698,7.8042399 c -1.52306,-0.780984 -2.12616,-1.934538 -2.12616,-4.066701 0,-2.265868 1.00056,-4.17886496 2.64955,-5.065716 2.20743,-1.187193 5.81334,-0.385231 7.70341,1.71325704 1.93131,2.14426396 1.98052,4.11165496 0.1504,6.01279196 -1.90814,1.982195 -5.93565,2.658334 -8.3772,1.406368 z M -42.971672,6.0299449 c -1.57754,-0.961886 -2.02071,-2.280433 -1.52959,-4.550956 0.25157,-1.16305396 1.26264,-3.149132 1.89317,-3.718825 0.83458,-0.754045 2.37323,-1.266862 3.80108,-1.266862 1.14128,0 1.4722,0.120428 2.12517,0.773398 0.59952,0.599524 0.77339,1.013674 0.77339,1.84215804 0,2.45988296 -2.05135,5.79628396 -4.25501,6.92050596 -1.27064,0.64823 -1.74588,0.648328 -2.80821,5.81e-4 z M 311.03308,-58.796924 c -1.12473,-0.26722 -2.07421,-0.9082 -2.64878,-1.78814 -0.72023,-1.10302 -0.60996,-6.26808 0.17787,-8.33128 1.16006,-3.038 3.89776,-4.55952 8.21897,-4.56782 3.01036,-0.006 3.94393,0.4209 4.80278,2.19505 1.06288,2.19563 0.0936,5.87059 -2.21437,8.39592 -1.07257,1.17356 -1.93313,1.75977 -4.27384,2.9113 -1.61197,0.79303 -2.99352,1.42968 -3.07011,1.41478 -0.0766,-0.0149 -0.52322,-0.11831 -0.99252,-0.22981 z m -119.72641,-48.934216 -0.86407,-0.77236 v -4.45316 c 0,-5.10575 0.19435,-5.9426 1.77948,-7.66227 1.41027,-1.52996 3.33795,-2.24327 6.15045,-2.27589 5.1173,-0.0593 8.27152,2.31364 8.77979,6.60519 0.13653,1.15277 0.0417,1.60606 -0.64186,3.0667 -1.00955,2.15737 -2.45053,3.60819 -4.59878,4.6302 -1.96698,0.93578 -5.35211,1.63395 -7.92226,1.63395 -1.63585,0 -1.90555,-0.0776 -2.68275,-0.77236 z"
        id="path1" />
    </g>
</svg>
